<?xml version="1.0" encoding="utf-8"?>
<!-- Generator: Adobe Illustrator 27.1.0, SVG Export Plug-In . SVG Version: 6.00 Build 0)  -->
<svg version="1.1" id="Layer_1" xmlns="http://www.w3.org/2000/svg" xmlns:xlink="http://www.w3.org/1999/xlink" x="0px" y="0px"
	 viewBox="0 0 247 247" style="enable-background:new 0 0 247 247;" xml:space="preserve">
<style type="text/css">
	.st0{fill:#00ACEA;stroke:#000000;stroke-width:4.5441;stroke-linecap:round;stroke-linejoin:round;stroke-miterlimit:10;}
	.st1{fill:#00EFD1;stroke:#000000;stroke-width:5;stroke-linecap:round;stroke-linejoin:round;stroke-miterlimit:10;}
	.st2{fill:none;stroke:#000000;stroke-width:5;stroke-linecap:round;stroke-linejoin:round;stroke-miterlimit:10;}
	.st3{fill:#FEDB41;stroke:#000000;stroke-width:5;stroke-linecap:round;stroke-linejoin:round;stroke-miterlimit:10;}
	.st4{fill:#00ACEA;stroke:#000000;stroke-width:5;stroke-linecap:round;stroke-linejoin:round;stroke-miterlimit:10;}
</style>
<g>
	<ellipse class="st0" cx="123.6" cy="20.3" rx="14.1" ry="16.7"/>
	<path class="st1" d="M140.3,42.7h-7.5c-0.2,0-0.3,0.1-0.3,0.3v0c0,4.9-4,8.9-8.9,8.9h0c-4.9,0-8.9-4-8.9-8.9v0
		c0-0.2-0.1-0.3-0.3-0.3h-7c-9.4,0-17,7.7-17,17v38.7c0,3.4,2.7,6.1,6.1,6.1h54.8c3.4,0,6.1-2.8,6.1-6.1V59.7
		C157.3,50.3,149.6,42.7,140.3,42.7z"/>
	<line class="st2" x1="105.6" y1="69" x2="105.6" y2="96.1"/>
	<line class="st2" x1="141.6" y1="69" x2="141.6" y2="96.1"/>
	<polyline class="st2" points="36.9,208.2 36.9,185.9 211.9,185.9 211.9,208.2 	"/>
	<rect x="12.1" y="208.1" class="st3" width="45.8" height="34.7"/>
	<rect x="100.7" y="208.1" class="st3" width="45.8" height="34.7"/>
	<rect x="189" y="208.1" class="st3" width="45.8" height="34.7"/>
	<path class="st4" d="M131.2,172.6h-15.1c-5.7,0-10.4-4.7-10.4-10.4v-66h36v66C141.6,167.9,136.9,172.6,131.2,172.6z"/>
	<line class="st2" x1="123.8" y1="110.5" x2="123.8" y2="206.2"/>
</g>
</svg>
