<?xml version="1.0" encoding="utf-8"?>
<!-- Generator: Adobe Illustrator 26.5.0, SVG Export Plug-In . SVG Version: 6.00 Build 0)  -->
<svg version="1.1" id="Layer_1" xmlns="http://www.w3.org/2000/svg" xmlns:xlink="http://www.w3.org/1999/xlink" x="0px" y="0px"
	 viewBox="0 0 32 28" style="enable-background:new 0 0 32 28;" xml:space="preserve">
<style type="text/css">
	.st0{fill:none;stroke:#231F20;stroke-miterlimit:10;}
	.st1{fill:#231F20;}
	.st2{fill:none;stroke:#231F20;stroke-width:2;stroke-miterlimit:10;}
</style>
<path class="st0" d="M16.1,8.2"/>
<g>
	<path class="st1" d="M8.9,8.6c0-0.2,0-0.3,0.1-0.4S9.1,8,9.2,7.9c0.1-0.1,0.2-0.2,0.3-0.2s0.2-0.1,0.4-0.1s0.3,0,0.4,0.1
		c0.1,0,0.2,0.1,0.3,0.2c0.1,0.1,0.2,0.2,0.2,0.3s0.1,0.3,0.1,0.4v2.3L13.3,8c0.1-0.1,0.2-0.2,0.3-0.3c0.1-0.1,0.2-0.1,0.4-0.1
		c0.1,0,0.3,0,0.4,0s0.2,0.1,0.3,0.1C14.9,7.9,15,8,15,8.1c0.1,0.1,0.1,0.2,0.1,0.4c0,0.1,0,0.3,0,0.4c0,0.1-0.1,0.3-0.2,0.4
		l-1.9,2.1l2.8,4.4h-2.3l-1.8-2.9l-0.8,0.9v2.1h-2V8.6z"/>
	<path class="st1" d="M22.6,10.4c0,0.5-0.1,0.9-0.3,1.3c-0.2,0.4-0.5,0.6-0.9,0.9l1.9,3.2h-2.3L19.6,13h-1.3v2.7h-2V9.2
		c0-0.3,0-0.5,0.1-0.7c0-0.2,0.1-0.4,0.3-0.5c0.1-0.1,0.3-0.2,0.5-0.3c0.2-0.1,0.4-0.1,0.8-0.1h1.8c0.4,0,0.8,0.1,1.2,0.2
		c0.4,0.1,0.7,0.3,0.9,0.5c0.3,0.2,0.5,0.5,0.6,0.8c0.2,0.3,0.2,0.7,0.2,1.2V10.4z M18.3,11.3h1.3c0.3,0,0.6-0.1,0.8-0.3
		c0.2-0.2,0.3-0.4,0.3-0.7v-0.1c0-0.3-0.1-0.5-0.3-0.7c-0.2-0.2-0.4-0.3-0.8-0.3h-1c-0.1,0-0.2,0-0.2,0.1c0,0-0.1,0.1-0.1,0.2V11.3z
		"/>
</g>
<path class="st2" d="M27.7,1.9H4.5c-1,0-1.9,0.8-1.9,1.9v16c0,1,0.8,1.9,1.9,1.9H12l3.3,4.1c0.4,0.5,1.2,0.5,1.7,0l3.2-4h7.5
	c1,0,1.9-0.8,1.9-1.9v-16C29.6,2.7,28.7,1.9,27.7,1.9z"/>
</svg>
