<?xml version="1.0" encoding="utf-8"?>
<!-- Generator: Adobe Illustrator 25.3.1, SVG Export Plug-In . SVG Version: 6.00 Build 0)  -->
<svg version="1.1" id="Layer_1" xmlns="http://www.w3.org/2000/svg" xmlns:xlink="http://www.w3.org/1999/xlink" x="0px" y="0px"
	 viewBox="0 0 260 90" style="enable-background:new 0 0 260 90;" xml:space="preserve">
<style type="text/css">
	.st0{fill:#FFFFFF;}
	.st1{fill:#E20613;}
</style>
<g>
	<g>
		<path d="M243.18,41.36c0.03,3.82,3.1,6.92,6.92,6.92c3.82,0,6.93-3.1,6.93-6.92V22.23c0-3.83-3.1-6.93-6.93-6.93
			c-3.82,0-6.92,3.1-6.92,6.93l0.03,11.29c0,0-0.87,3.76-4.99,3.92c-4.12,0.16-15.29-5.63-19.38-16.32
			c-1.46-3.57-3.5-4.99-6.65-4.99c-3.12,0-5.77,1.99-6.63,4.91c-3.87,12.75-12.98,16.69-15.83,16.89c-2.22,0.22-3.72,1.67-3.72,3.63
			s1.5,3.25,3.8,3.25c4.99,0,14.97-3.09,22.5-11.17C220.32,41.48,236.77,48.61,243.18,41.36z"/>
		<path d="M113.08,34.64c-2,0-3.62-1.62-3.62-3.62l0.02-9.75c0-3.82,3.1-6.93,6.92-6.93c3.83,0,6.85,3.1,6.85,6.93v6.18
			c0,0,36.82,0,39.68,0c4.46,0,5.82-0.97,7.23-1.43c1.98-0.63,4.18-0.21,5.02,1.68c0.84,1.89-0.14,3.77-1.75,4.81
			c-1.61,1.04-5.21,2.07-10.5,2.07c-3.72,0-15.15,0-15.15,0v3.8l27.45,0.07c2,0,3.62,1.62,3.62,3.62c0,2-1.62,3.62-3.62,3.62h-66.91
			c-2,0-3.62-1.62-3.62-3.62c0-2,1.62-3.62,3.62-3.62l25.91-0.07v-3.8L113.08,34.64z"/>
		<path d="M108.04,61.21c0-7.85,14.97-14.21,33.44-14.21c18.47,0,33.44,6.37,33.44,14.21s-14.97,14.21-33.44,14.21
			C123.01,75.42,108.04,69.06,108.04,61.21z M141.48,68.6c10.77,0,19.5-3.31,19.5-7.39s-8.73-7.39-19.5-7.39
			c-10.77,0-19.5,3.31-19.5,7.39S130.72,68.6,141.48,68.6z"/>
		<path d="M192.65,52.29c0-2,1.62-3.62,3.62-3.62h57.28c2,0,3.62,1.62,3.62,3.62v16.04c0,2-1.62,3.62-3.62,3.62h-57.28
			c-2,0-3.62-1.62-3.62-3.62V52.29z M206.37,55.74v9.03h36.84v-9.03H206.37z"/>
	</g>
	<g>
		<ellipse class="st0" cx="49.74" cy="44.88" rx="48.34" ry="41.22"/>
		<path class="st1" d="M4.86,44.88c0-21.13,20.09-38.27,44.88-38.27s44.88,17.13,44.88,38.27c0,21.13-20.09,38.27-44.88,38.27
			S4.86,66.02,4.86,44.88z M49.74,51.37c7.87,0,14.26-9.19,14.26-20.52c0-11.33-6.38-20.52-14.26-20.52
			c-7.87,0-14.26,9.19-14.26,20.52C35.48,42.19,41.86,51.37,49.74,51.37z"/>
	</g>
</g>
</svg>
