<?xml version="1.0" encoding="utf-8"?>
<!-- Generator: Adobe Illustrator 26.5.0, SVG Export Plug-In . SVG Version: 6.00 Build 0)  -->
<svg version="1.1" id="Layer_1" xmlns="http://www.w3.org/2000/svg" xmlns:xlink="http://www.w3.org/1999/xlink" x="0px" y="0px"
	 viewBox="0 0 215 157" style="enable-background:new 0 0 215 157;" xml:space="preserve">
<style type="text/css">
	.st0{fill:#FFFFFF;}
	.st1{fill:#EC1C24;}
	.st2{opacity:0.8;}
	.st3{fill:#231F20;}
</style>
<g>
	<g>
		<g>
			<path d="M64.7,128.7c-1.3,0-2.3-1-2.3-2.3l0-6.3c0-2.5,2-4.5,4.5-4.5s4.4,2,4.4,4.5v4c0,0,23.7,0,25.5,0c2.9,0,3.7-0.6,4.6-0.9
				c1.3-0.4,2.7-0.1,3.2,1.1c0.5,1.2-0.1,2.4-1.1,3.1c-1,0.7-3.3,1.3-6.8,1.3c-2.4,0-9.7,0-9.7,0v2.4l17.6,0c1.3,0,2.3,1,2.3,2.3
				c0,1.3-1,2.3-2.3,2.3h-43c-1.3,0-2.3-1-2.3-2.3c0-1.3,1-2.3,2.3-2.3l16.7,0v-2.4L64.7,128.7z"/>
			<path d="M61.4,145.8c0-5,9.6-9.1,21.5-9.1s21.5,4.1,21.5,9.1c0,5-9.6,9.1-21.5,9.1S61.4,150.8,61.4,145.8z M82.9,150.5
				c6.9,0,12.5-2.1,12.5-4.8s-5.6-4.8-12.5-4.8s-12.5,2.1-12.5,4.8S76,150.5,82.9,150.5z"/>
		</g>
		<g>
			<path d="M148.3,133c0,2.5,2,4.5,4.5,4.5c2.5,0,4.5-2,4.5-4.5v-12.3c0-2.5-2-4.5-4.5-4.5c-2.5,0-4.5,2-4.5,4.5l0,7.3
				c0,0-0.6,2.4-3.2,2.5c-2.6,0.1-9.8-3.6-12.5-10.5c-0.9-2.3-2.2-3.2-4.3-3.2c-2,0-3.7,1.3-4.3,3.2c-2.5,8.2-8.3,10.7-10.2,10.9
				c-1.4,0.1-2.4,1.1-2.4,2.3c0,1.3,1,2.1,2.4,2.1c3.2,0,9.6-2,14.5-7.2C133.6,133.1,144.2,137.7,148.3,133z"/>
			<g>
				<path d="M155,137.7h-36.8c-1.3,0-2.3,1-2.3,2.3v10.3c0,1.3,1,2.3,2.3,2.3H155c1.3,0,2.3-1,2.3-2.3v-10.3
					C157.3,138.8,156.2,137.7,155,137.7z M148.3,148.1h-23.7v-5.8h23.7V148.1z"/>
			</g>
		</g>
	</g>
	<g>
		<path class="st0" d="M108.3,108.7c34.6,0,62.6-23.9,62.6-53.4c0-29.5-28-53.4-62.6-53.4S45.7,25.8,45.7,55.3
			C45.7,84.8,73.7,108.7,108.3,108.7z"/>
		<path class="st1" d="M50.2,55.3c0-27.4,26-49.6,58.1-49.6s58.1,22.2,58.1,49.6s-26,49.6-58.1,49.6S50.2,82.7,50.2,55.3z
			 M108.3,63.7c10.2,0,18.5-11.9,18.5-26.6s-8.3-26.6-18.5-26.6c-10.2,0-18.5,11.9-18.5,26.6S98.1,63.7,108.3,63.7z"/>
	</g>
</g>
<g class="st2">
	<path class="st3" d="M40.4,69.3c0,1.7-0.4,3.3-1.3,4.8c-0.9,1.5-2.2,2.7-3.9,3.7c2.4,1,4.1,2.3,5.2,4c1.1,1.7,1.7,3.6,1.7,5.8v0.1
		c0,2.3-0.4,4.3-1.3,6c-0.9,1.6-2.1,3-3.6,4c-1.5,1-3.3,1.7-5.4,2.2s-4.3,0.7-6.8,0.7h-9.6c-1.6,0-3-0.2-4.1-0.5
		c-1.1-0.3-2-0.8-2.6-1.5c-0.7-0.7-1.1-1.6-1.4-2.7c-0.3-1.1-0.4-2.4-0.4-4V64.8c0-1.6,0.1-2.9,0.4-4c0.3-1.1,0.7-2,1.4-2.7
		c0.7-0.7,1.5-1.2,2.6-1.5c1.1-0.3,2.5-0.5,4.1-0.5h8c2.5,0,4.8,0.3,6.9,0.9c2.1,0.6,3.8,1.4,5.3,2.5c1.5,1.1,2.6,2.4,3.5,4
		c0.8,1.6,1.2,3.4,1.2,5.5V69.3z M19.6,65.5c-0.6,0-1,0.1-1.3,0.3C18.1,66,18,66.4,18,67.1v6.7h6c0.9,0,1.7-0.1,2.4-0.4
		c0.7-0.2,1.2-0.5,1.6-0.9c0.4-0.4,0.7-0.8,0.9-1.3c0.2-0.5,0.3-0.9,0.3-1.4v-0.4c0-1-0.4-1.9-1.2-2.7c-0.8-0.8-2.2-1.2-4-1.2H19.6z
		 M18,82.8v6.7c0,0.7,0.1,1.1,0.3,1.3c0.2,0.2,0.6,0.3,1.3,0.3h6c1.8,0,3.2-0.4,4-1.2c0.8-0.8,1.2-1.7,1.2-2.7v-0.4
		c0-1-0.4-1.9-1.2-2.7c-0.8-0.8-2.2-1.2-4-1.2H18z"/>
	<path class="st3" d="M81.6,71.1c0,2.6-0.6,4.9-1.8,6.9c-1.2,2-2.8,3.6-4.8,4.8l10.5,17.5H72.9l-8.2-14.8h-7v14.8H46.4V64.8
		c0-1.6,0.1-2.9,0.4-4c0.3-1.1,0.7-2,1.4-2.7c0.7-0.7,1.5-1.2,2.6-1.5c1.1-0.3,2.5-0.5,4.1-0.5h10.1c2.4,0,4.6,0.3,6.6,0.9
		c2,0.6,3.8,1.4,5.2,2.6c1.5,1.2,2.6,2.7,3.4,4.5c0.8,1.8,1.2,3.9,1.2,6.4V71.1z M57.6,76.3h7.1c1.9,0,3.3-0.5,4.2-1.5
		c0.9-1,1.4-2.2,1.4-3.6v-0.4c0-1.4-0.5-2.6-1.4-3.6c-0.9-1-2.3-1.5-4.2-1.5h-5.6c-0.6,0-1,0.1-1.3,0.3c-0.2,0.2-0.3,0.6-0.3,1.3
		V76.3z"/>
	<path class="st3" d="M100.3,60.5c0.5-1.5,1.5-2.7,2.8-3.4c1.3-0.8,2.8-1.1,4.3-1.1c1.4,0,2.7,0.4,4,1.2c1.3,0.8,2.2,1.9,2.7,3.4
		l14.4,39.9h-12.1l-2.1-6.8h-14.1l-2.1,6.8H86.2L100.3,60.5z M103,84.3h8.4l-4.2-13.7L103,84.3z"/>
	<path class="st3" d="M157.5,83.1V61.1c0-1.7,0.5-3,1.5-3.9c1-0.9,2.2-1.3,3.5-1.3c1.3,0,2.5,0.4,3.5,1.3c1,0.9,1.5,2.2,1.5,3.9
		v34.6c0,0.8-0.2,1.6-0.5,2.2c-0.3,0.6-0.8,1.2-1.3,1.6c-0.5,0.4-1.1,0.8-1.7,1c-0.6,0.3-1.3,0.4-1.9,0.4c-1.3,0.1-2.7-0.1-4.1-0.6
		c-1.4-0.5-2.4-1.4-3.1-2.6l-13.4-23.8v26.3h-10V61.5c0-0.8,0.2-1.6,0.5-2.3s0.8-1.2,1.3-1.7c0.5-0.5,1.1-0.8,1.8-1.1
		c0.7-0.3,1.3-0.4,1.9-0.5c1.3-0.1,2.7,0.1,4,0.6c1.4,0.6,2.4,1.4,3.1,2.6L157.5,83.1z"/>
	<path class="st3" d="M190.2,56.1c2.4,0,4.7,0.3,7.1,1c2.3,0.7,4.4,1.8,6.3,3.4c1.9,1.6,3.3,3.7,4.5,6.3c1.1,2.6,1.7,5.8,1.7,9.6
		v3.6c0,3.8-0.6,7-1.7,9.6c-1.1,2.6-2.6,4.7-4.5,6.3c-1.9,1.6-3.9,2.7-6.3,3.4c-2.3,0.7-4.7,1-7.1,1H182c-1.6,0-3-0.2-4.1-0.5
		c-1.1-0.3-2-0.8-2.6-1.5c-0.7-0.7-1.1-1.6-1.4-2.7c-0.3-1.1-0.4-2.4-0.4-4V64.8c0-1.6,0.1-2.9,0.4-4c0.3-1.1,0.7-2,1.4-2.7
		c0.7-0.7,1.5-1.2,2.6-1.5c1.1-0.3,2.5-0.5,4.1-0.5H190.2z M198.5,75.6c0-3.2-0.8-5.7-2.4-7.4s-3.7-2.6-6.3-2.6h-3.6
		c-0.6,0-1,0.1-1.3,0.3c-0.2,0.2-0.3,0.6-0.3,1.3v22.1c0,0.7,0.1,1.1,0.3,1.3c0.2,0.2,0.6,0.3,1.3,0.3h3.6c2.6,0,4.7-0.9,6.3-2.6
		c1.6-1.7,2.4-4.2,2.4-7.4V75.6z"/>
</g>
</svg>
