<?xml version="1.0" encoding="utf-8"?>
<!-- Generator: Adobe Illustrator 25.3.1, SVG Export Plug-In . SVG Version: 6.00 Build 0)  -->
<svg version="1.1" id="Layer_1" xmlns="http://www.w3.org/2000/svg" xmlns:xlink="http://www.w3.org/1999/xlink" x="0px" y="0px"
	 viewBox="0 0 215 157" style="enable-background:new 0 0 215 157;" xml:space="preserve">
<style type="text/css">
	.st0{fill:#FFFFFF;}
	.st1{fill:#E20613;}
</style>
<g>
	<g>
		<path d="M199.6,74.64c0.03,3.11,2.52,5.63,5.63,5.63c3.11,0,5.63-2.52,5.63-5.63V59.09c0-3.11-2.52-5.63-5.63-5.63
			c-3.11,0-5.63,2.52-5.63,5.63l0.03,9.18c0,0-0.71,3.06-4.06,3.19c-3.35,0.13-12.43-4.57-15.75-13.26
			c-1.19-2.9-2.84-4.06-5.41-4.06c-2.54,0-4.69,1.62-5.39,3.99c-3.15,10.36-10.55,13.57-12.87,13.73c-1.8,0.18-3.03,1.36-3.03,2.95
			s1.22,2.64,3.09,2.64c4.06,0,12.17-2.51,18.29-9.08C181.01,74.74,194.39,80.53,199.6,74.64z"/>
		<path d="M93.84,69.18c-1.62,0-2.94-1.32-2.94-2.94l0.02-7.92c0-3.11,2.52-5.63,5.63-5.63c3.11,0,5.57,2.52,5.57,5.63v5.02
			c0,0,29.93,0,32.25,0c3.62,0,4.73-0.79,5.88-1.16c1.61-0.52,3.4-0.17,4.08,1.36c0.68,1.53-0.12,3.06-1.42,3.91
			c-1.31,0.84-4.24,1.68-8.54,1.68c-3.03,0-12.32,0-12.32,0v3.09l22.31,0.05c1.63,0,2.94,1.32,2.94,2.94c0,1.62-1.32,2.94-2.94,2.94
			H89.98c-1.62,0-2.94-1.32-2.94-2.94c0-1.62,1.32-2.94,2.94-2.94l21.06-0.05v-3.09L93.84,69.18z"/>
		<path d="M89.74,90.77c0-6.38,12.17-11.55,27.19-11.55c15.01,0,27.18,5.17,27.18,11.55s-12.17,11.55-27.18,11.55
			C101.92,102.33,89.74,97.15,89.74,90.77z M116.93,96.78c8.75,0,15.85-2.69,15.85-6.01s-7.1-6.01-15.85-6.01
			c-8.75,0-15.85,2.69-15.85,6.01S108.18,96.78,116.93,96.78z"/>
		<path d="M158.52,83.53c0-1.62,1.32-2.94,2.94-2.94h46.56c1.62,0,2.94,1.32,2.94,2.94v13.04c0,1.62-1.32,2.94-2.94,2.94h-46.56
			c-1.62,0-2.94-1.32-2.94-2.94V83.53z M169.67,86.33v7.34h29.95v-7.34H169.67z"/>
	</g>
	<g>
		<ellipse class="st0" cx="42.35" cy="77.51" rx="39.3" ry="33.51"/>
		<path class="st1" d="M5.87,77.51c0-17.18,16.33-31.11,36.48-31.11s36.48,13.93,36.48,31.11c0,17.18-16.33,31.11-36.48,31.11
			S5.87,94.68,5.87,77.51z M42.35,82.78c6.4,0,11.59-7.47,11.59-16.68c0-9.21-5.19-16.68-11.59-16.68c-6.4,0-11.59,7.47-11.59,16.68
			C30.76,75.31,35.95,82.78,42.35,82.78z"/>
	</g>
</g>
</svg>
