<?xml version="1.0" encoding="utf-8"?>
<!-- Generator: Adobe Illustrator 25.3.1, SVG Export Plug-In . SVG Version: 6.00 Build 0)  -->
<svg version="1.1" id="Layer_1" xmlns="http://www.w3.org/2000/svg" xmlns:xlink="http://www.w3.org/1999/xlink" x="0px" y="0px"
	 viewBox="0 0 215 157" style="enable-background:new 0 0 215 157;" xml:space="preserve">
<style type="text/css">
	.st0{fill:#FFFFFF;}
</style>
<g>
	<polygon class="st0" points="15.83,69.27 15.83,42.74 11.48,42.74 11.48,73.62 14.8,73.62 15.83,73.62 49.82,73.62 49.82,69.27 	
		"/>
	
		<rect x="132.86" y="24.77" transform="matrix(-1.836970e-16 1 -1 -1.836970e-16 179.8544 -89.0816)" class="st0" width="3.21" height="41.24"/>
	<polygon class="st0" points="145.44,73.46 148.85,49.57 144.54,48.95 141.04,73.46 127.74,73.46 123.24,48.95 118.96,49.74 
		123.31,73.46 111.98,73.46 111.98,76.68 155.09,76.68 155.09,73.46 	"/>
	<g>
		<polygon class="st0" points="68.47,61.19 68.47,49.17 64.12,49.17 64.12,65.54 65.15,65.54 65.15,61.19 		"/>
		<polygon class="st0" points="68.47,49.17 99.14,49.17 99.14,44.82 64.12,44.82 64.12,44.97 68.47,44.97 		"/>
		<rect x="64.12" y="44.97" class="st0" width="4.35" height="4.2"/>
		<rect x="68.47" y="61.19" class="st0" width="31.7" height="4.35"/>
		<rect x="65.15" y="61.19" class="st0" width="3.32" height="4.35"/>
	</g>
	<polygon class="st0" points="54.38,81.49 4.02,81.49 4.02,85.85 27.02,85.85 27.02,110.09 31.38,110.09 31.38,85.85 54.38,85.85 	
		"/>
	
		<rect x="79.45" y="48.44" transform="matrix(-1.836970e-16 1 -1 -1.836970e-16 155.2469 -8.0064)" class="st0" width="4.35" height="50.35"/>
	<polygon class="st0" points="159.65,80.56 109.29,80.56 109.29,84.91 131.36,84.91 131.36,110.35 135.71,110.35 135.71,84.91 
		159.65,84.91 	"/>
	<g>
		<polygon class="st0" points="98.71,84.91 99.14,84.91 99.14,80.56 61.42,80.56 61.42,84.91 86.49,84.91 97.6,81.4 		"/>
		<polygon class="st0" points="68.21,107.92 64.3,109.15 63.91,107.92 63.81,107.92 63.81,112.27 101.52,112.27 101.52,107.92 		"/>
		<polygon class="st0" points="76.03,92.79 98.91,85.55 98.71,84.91 86.49,84.91 61.64,92.77 62.77,96.33 62.77,92.79 		"/>
		<polygon class="st0" points="97.6,81.4 86.49,84.91 98.71,84.91 		"/>
		<polygon class="st0" points="100.06,97.14 100.48,97.14 100.48,92.79 76.03,92.79 62.96,96.92 62.77,96.33 62.77,97.14 
			87.84,97.14 98.95,93.63 		"/>
		<polygon class="st0" points="76.03,92.79 62.77,92.79 62.77,96.33 62.96,96.92 		"/>
		<polygon class="st0" points="100.26,97.77 100.06,97.14 87.84,97.14 62.99,105 63.91,107.92 68.21,107.92 		"/>
		<polygon class="st0" points="68.21,107.92 63.91,107.92 64.3,109.15 		"/>
		<polygon class="st0" points="98.95,93.63 87.84,97.14 100.06,97.14 		"/>
	</g>
	<polygon class="st0" points="171.66,61.19 171.66,49.17 202.33,49.17 202.33,44.82 167.31,44.82 167.31,44.97 167.31,49.17 
		167.31,65.54 168.35,65.54 171.66,65.54 203.37,65.54 203.37,61.19 	"/>
	
		<rect x="182.65" y="48.44" transform="matrix(-1.836970e-16 1 -1 -1.836970e-16 258.4429 -111.2024)" class="st0" width="4.35" height="50.35"/>
	<polygon class="st0" points="171.4,107.92 203.46,97.77 203.26,97.14 203.68,97.14 203.68,92.79 179.23,92.79 202.11,85.55 
		201.91,84.91 202.33,84.91 202.33,80.56 164.62,80.56 164.62,84.91 189.69,84.91 164.84,92.77 165.97,96.33 165.97,97.14 
		191.04,97.14 166.19,105 167.11,107.92 167,107.92 167,112.27 204.72,112.27 204.72,107.92 	"/>
</g>
</svg>
