<?xml version="1.0" encoding="utf-8"?>
<!-- Generator: Adobe Illustrator 27.1.0, SVG Export Plug-In . SVG Version: 6.00 Build 0)  -->
<svg version="1.1" id="Layer_1" xmlns="http://www.w3.org/2000/svg" xmlns:xlink="http://www.w3.org/1999/xlink" x="0px" y="0px"
	 viewBox="0 0 247 247" style="enable-background:new 0 0 247 247;" xml:space="preserve">
<style type="text/css">
	.st0{fill:#57A4FF;stroke:#000000;stroke-width:5;stroke-linecap:round;stroke-linejoin:round;stroke-miterlimit:10;}
	.st1{fill:#FFDE55;stroke:#000000;stroke-width:5;stroke-linecap:round;stroke-linejoin:round;stroke-miterlimit:10;}
	.st2{fill:none;stroke:#000000;stroke-width:6;stroke-linecap:round;stroke-linejoin:round;stroke-miterlimit:10;}
	.st3{fill:none;stroke:#000000;stroke-width:5;stroke-linecap:round;stroke-linejoin:round;stroke-miterlimit:10;}
	.st4{fill:#B39A7C;stroke:#000000;stroke-width:5;stroke-linecap:round;stroke-linejoin:round;stroke-miterlimit:10;}
	.st5{fill:#00D7DF;stroke:#000000;stroke-width:5;stroke-linecap:round;stroke-linejoin:round;stroke-miterlimit:10;}
	.st6{fill:#FFCD00;stroke:#000000;stroke-width:5;stroke-linecap:round;stroke-linejoin:round;stroke-miterlimit:10;}
</style>
<g>
	<path class="st0" d="M124.5,66.6c0-32.2-26.1-58.4-58.4-58.4C33.9,8.2,7.8,34.4,7.8,66.6c0,20.6,10.7,38.7,26.8,49.1v-75h49.1
		l12.9,14.5v61.2C113.4,106.1,124.5,87.7,124.5,66.6z"/>
	<path class="st1" d="M83.8,40.8H34.6v75c9.1,5.8,19.9,9.3,31.5,9.3c11.2,0,21.6-3.2,30.5-8.6V55.2L83.8,40.8z"/>
	<line class="st2" x1="47.5" y1="55" x2="75.9" y2="55"/>
	<line class="st2" x1="47.5" y1="70.9" x2="83.7" y2="70.9"/>
	<line class="st2" x1="47.5" y1="101.6" x2="83.7" y2="101.6"/>
	<line class="st2" x1="47.5" y1="86.7" x2="60.9" y2="86.7"/>
	<line class="st2" x1="70.2" y1="86.7" x2="83.7" y2="86.7"/>
	<line class="st3" x1="66.2" y1="125" x2="66.2" y2="150.8"/>
	<path class="st4" d="M65.7,238.5L65.7,238.5c-7,0-12.7-5.7-12.7-12.7v-74.9h25.4v74.9C78.4,232.7,72.6,238.5,65.7,238.5z"/>
	<polyline class="st3" points="90.6,131.7 190.2,131.7 190.2,117.7 	"/>
	<line class="st3" x1="189.4" y1="102.8" x2="189.4" y2="108.7"/>
	<polyline class="st3" points="89.6,150.8 103.4,150.8 103.4,198.2 133.9,198.2 	"/>
	<line class="st3" x1="143.7" y1="198.2" x2="149.3" y2="198.2"/>
	<rect x="142.4" y="12.1" class="st5" width="93.2" height="78.3"/>
	<polyline class="st3" points="158.7,62.3 169.5,51.2 180.9,51.2 185.6,39.6 203,39.6 211.6,28.2 222.8,28.2 	"/>
	<line class="st2" x1="158.7" y1="71.9" x2="158.7" y2="78.8"/>
	<line class="st2" x1="173.8" y1="65.3" x2="173.8" y2="78.8"/>
	<line class="st2" x1="189.4" y1="57.4" x2="189.4" y2="77.4"/>
	<line class="st2" x1="204.6" y1="50.2" x2="204.6" y2="77.4"/>
	<line class="st2" x1="219.9" y1="42" x2="219.9" y2="77.4"/>
	<circle class="st6" cx="199.9" cy="199.1" r="39.3"/>
	<path class="st3" d="M211.7,182.8c0,0-15.8-2.9-20.1,4.3c-1.4,2.3-1.1,5.3,0.7,7.3c1.6,1.8,4.6,3.7,9.8,3.7c0,0,9.6,0.5,9.6,8.2
		c0,0,1.6,9.4-10.8,9.4c0,0-7.5-0.8-9.9-2.5"/>
	<line class="st2" x1="200.9" y1="171.9" x2="200.9" y2="224.9"/>
</g>
</svg>
