<?xml version="1.0" encoding="utf-8"?>
<!-- Generator: Adobe Illustrator 27.1.0, SVG Export Plug-In . SVG Version: 6.00 Build 0)  -->
<svg version="1.1" id="Layer_1" xmlns="http://www.w3.org/2000/svg" xmlns:xlink="http://www.w3.org/1999/xlink" x="0px" y="0px"
	 viewBox="0 0 247 247" style="enable-background:new 0 0 247 247;" xml:space="preserve">
<style type="text/css">
	.st0{fill:#00B39D;stroke:#000000;stroke-width:5;stroke-linecap:round;stroke-linejoin:round;stroke-miterlimit:10;}
	.st1{fill:none;stroke:#000000;stroke-width:6;stroke-linecap:round;stroke-linejoin:round;stroke-miterlimit:10;}
	.st2{fill:none;stroke:#000000;stroke-width:5;stroke-linecap:round;stroke-linejoin:round;stroke-miterlimit:10;}
	.st3{fill:#00CCB3;stroke:#000000;stroke-width:5;stroke-linecap:round;stroke-linejoin:round;stroke-miterlimit:10;}
	.st4{fill:#5AAAE7;stroke:#000000;stroke-width:5;stroke-linecap:round;stroke-linejoin:round;stroke-miterlimit:10;}
	.st5{fill:#FF6243;stroke:#000000;stroke-width:5;stroke-linecap:round;stroke-linejoin:round;stroke-miterlimit:10;}
	.st6{fill:#FFC477;stroke:#000000;stroke-width:5;stroke-linecap:round;stroke-linejoin:round;stroke-miterlimit:10;}
	.st7{fill:#787680;stroke:#000000;stroke-width:5;stroke-linecap:round;stroke-linejoin:round;stroke-miterlimit:10;}
</style>
<g>
	<path class="st0" d="M109,17.4c10.8,11.3,9.7,27-0.6,36.8S82.3,64.3,71.5,53S60.6,19.4,63.2,6.7C74.1,4.2,98.2,6,109,17.4z"/>
	<path class="st0" d="M161.5,56.6c-7,7.4-17.2,7.2-24,0.9c-6.7-6.4-7.4-16.6-0.5-24c7-7.4,21.5-8.3,29.8-7
		C168.9,33.5,168.5,49.2,161.5,56.6z"/>
	<polyline class="st1" points="89.2,34.8 122.9,68.6 152.4,43.1 	"/>
	<line class="st1" x1="122.9" y1="92.8" x2="122.9" y2="68.6"/>
	<path class="st2" d="M39.3,175.2c0,0,0.4,30.9,27.7,53.3"/>
	<path class="st2" d="M23.3,173.9c0,0-2.8,26.3,18.1,48.1"/>
	<path class="st2" d="M206.5,175.8c0,0-0.4,30.9-27.7,53.3"/>
	<path class="st2" d="M222.4,174.6c0,0,2.8,26.3-18.1,48.1"/>
	<path class="st3" d="M131.7,213c6.5-7.9,14.3-21.2-6.5-21.4c-23.9-0.2-17,18.5-13.4,25.8c1,2.1,1.7,4.4,1.9,6.8l1.5,15.9
		c2.6,0.3,5.1,0.4,7.8,0.4c2.8,0,5.5-0.2,8.2-0.5l-2.9-12.4C127.1,222.4,128.3,217,131.7,213z"/>
	<path class="st3" d="M89,199.1c-1-4.9,1.3-9.8,5.6-12.3c3.9-2.4,8.9-4,10.4-5.5c2.8-2.7,4.7-11.3,5.4-17.1c0.3-2.5-0.3-5-1.6-7.1
		l-3.6-5.6c-1.7-2.6-2.7-5.5-3-8.5c-2.9-25.8-17.1-36.8-19.3-38.3c-20.3,13.2-33.7,36-33.7,61.9c0,25.8,13.3,48.6,33.4,61.8
		C91.1,219.5,90.5,207,89,199.1z"/>
	<path class="st4" d="M158,189c1.9-1.5,3-3.8,2.9-6.2l-0.7-10c-0.2-2.5-1.6-4.7-3.9-5.8c-8.4-4.2-10.1-11.4-10.1-16.4
		c0-2.4-2.3-4.2-4.7-3.5c-7.4,2.1-19.9,3-21.9-13.8c-2.8-23.8,17.1-38.9,17.3-39.1c-4.6-0.9-9.3-1.4-14.1-1.4
		c-14.8,0-28.6,4.4-40.2,11.9c2.2,1.6,16.3,12.5,19.3,38.3c0.3,3,1.4,5.9,3,8.5l3.6,5.6c1.4,2.1,1.9,4.6,1.6,7.1
		c-0.7,5.8-2.6,14.4-5.4,17.1c-1.5,1.5-6.4,3.1-10.4,5.5c-4.3,2.6-6.5,7.5-5.6,12.3c1.5,7.9,2.1,20.4-6.5,29.3
		c9.6,6.3,20.7,10.4,32.7,11.7l-1.5-15.9c-0.2-2.4-0.9-4.6-1.9-6.8c-3.6-7.3-10.5-26,13.4-25.8c20.8,0.2,13,13.4,6.5,21.4
		c-3.3,4.1-4.5,9.5-3.4,14.6l2.9,12.4c13.7-1.5,26.3-6.8,36.7-14.8C141.5,206,152,193.6,158,189z"/>
	<path class="st3" d="M196.8,166.6c0-36-25.7-65.9-59.8-72.5c-0.3,0.2-20.2,15.3-17.3,39.1c2,16.8,14.6,15.9,21.9,13.8
		c2.4-0.7,4.7,1.1,4.7,3.5c0,5,1.7,12.2,10.1,16.4c2.2,1.1,3.7,3.3,3.9,5.8l0.7,10c0.2,2.4-0.9,4.7-2.9,6.2
		c-6.1,4.6-16.6,17.1,9.9,36.2C185.5,211.6,196.8,190.4,196.8,166.6z"/>
	<path class="st5" d="M81.4,163.9v-14.1c0-11.9-12.2-21.6-27-21.6H36.7c-14.9,0-27,9.7-27,21.6v14.1H81.4z"/>
	<path class="st6" d="M46.2,141.1L46.2,141.1c-4.8,0-8.7-3.9-8.7-8.7v-16.8c0-4.8,3.9-8.7,8.7-8.7h0c4.8,0,8.7,3.9,8.7,8.7v16.8
		C54.9,137.2,51,141.1,46.2,141.1z"/>
	<path class="st6" d="M45.5,119.9L45.5,119.9c-9.5,0-17.3-7.8-17.3-17.3v0c0-9.5,7.8-17.3,17.3-17.3h0c9.5,0,17.3,7.8,17.3,17.3v0
		C62.8,112.1,55,119.9,45.5,119.9z"/>
	<path class="st7" d="M47.9,97c4.2-6.1,7.3-8.2,13.4-5c2.1,1.1,4.5-1.3,3.7-3.5c-2.7-7.6-9.7-13.3-18.3-13.7
		C36.6,74.3,26.1,81.2,25.9,91c0,1.4,0.3,1.6,0.6,2.4C28.7,99,40.7,107.4,47.9,97z"/>
	<line class="st2" x1="27.4" y1="147.9" x2="27.4" y2="163.9"/>
	<line class="st2" x1="63.8" y1="147.9" x2="63.8" y2="163.9"/>
	<path class="st4" d="M237.3,163.9v-14.1c0-11.9-12.2-21.6-27-21.6h-17.7c-14.9,0-27,9.7-27,21.6v14.1H237.3z"/>
	<path class="st6" d="M202.1,141.1L202.1,141.1c-4.8,0-8.7-3.9-8.7-8.7v-16.8c0-4.8,3.9-8.7,8.7-8.7h0c4.8,0,8.7,3.9,8.7,8.7v16.8
		C210.8,137.2,206.9,141.1,202.1,141.1z"/>
	<path class="st6" d="M201.4,119.9L201.4,119.9c-9.5,0-17.3-7.8-17.3-17.3v0c0-9.5,7.8-17.3,17.3-17.3h0c9.5,0,17.3,7.8,17.3,17.3v0
		C218.7,112.1,210.9,119.9,201.4,119.9z"/>
	<path class="st7" d="M203.8,97c4.2-6.1,7.3-8.2,13.4-5c2.1,1.1,4.5-1.3,3.7-3.5c-2.7-7.6-9.7-13.3-18.3-13.7
		c-10.1-0.5-20.6,6.4-20.9,16.2c0,1.4,0.3,1.6,0.6,2.4C184.6,99,196.6,107.4,203.8,97z"/>
	<line class="st2" x1="183.2" y1="147.9" x2="183.2" y2="163.9"/>
	<line class="st2" x1="219.7" y1="147.9" x2="219.7" y2="163.9"/>
</g>
</svg>
