<?xml version="1.0" encoding="utf-8"?>
<!-- Generator: Adobe Illustrator 27.1.0, SVG Export Plug-In . SVG Version: 6.00 Build 0)  -->
<svg version="1.1" id="Layer_1" xmlns="http://www.w3.org/2000/svg" xmlns:xlink="http://www.w3.org/1999/xlink" x="0px" y="0px"
	 viewBox="0 0 247 247" style="enable-background:new 0 0 247 247;" xml:space="preserve">
<style type="text/css">
	.st0{fill:#FFFFFF;}
	.st1{fill:#80D8FF;}
	.st2{fill:#FFAFA9;}
	.st3{fill:none;stroke:#000000;stroke-width:6;stroke-linecap:round;stroke-linejoin:round;stroke-miterlimit:10;}
	.st4{fill:none;stroke:#000000;stroke-width:5;stroke-linecap:round;stroke-linejoin:round;stroke-miterlimit:10;}
	.st5{fill:#FFE0B2;stroke:#000000;stroke-width:5;stroke-linecap:round;stroke-linejoin:round;stroke-miterlimit:10;}
	.st6{fill:none;stroke:#000000;stroke-width:7;stroke-linecap:round;stroke-linejoin:round;stroke-miterlimit:10;}
</style>
<g>
	<path class="st0" d="M223.1,164.2H23.8c-6.6,0-12-5.4-12-12V23.2c0-6.6,5.4-12,12-12h199.3c6.6,0,12,5.4,12,12v128.9
		C235.1,158.8,229.7,164.2,223.1,164.2z"/>
	<rect x="27.9" y="20.6" class="st1" width="188.3" height="143.6"/>
	<polygon class="st2" points="34.6,41.3 34.6,121 200.1,121 200.1,99.9 160.3,69.8 132.6,87.7 91.1,45.4 63.1,66.1 	"/>
	<line class="st3" x1="34.6" y1="56.8" x2="34.6" y2="118.9"/>
	<polyline class="st4" points="200.1,97.9 160.3,67.8 132.6,85.7 91.1,43.4 63.1,64.1 45.4,48.7 	"/>
	<line class="st3" x1="50.9" y1="78.2" x2="50.9" y2="118"/>
	<line class="st3" x1="66.7" y1="84.7" x2="66.7" y2="118"/>
	<line class="st3" x1="121" y1="92.8" x2="121" y2="118"/>
	<line class="st3" x1="134.7" y1="99.7" x2="134.7" y2="118"/>
	<line class="st3" x1="151.3" y1="89.4" x2="151.3" y2="118"/>
	<line class="st3" x1="166" y1="98.1" x2="166" y2="118"/>
	<line class="st3" x1="181" y1="103.7" x2="181" y2="118"/>
	<path class="st5" d="M82.6,230.5c0,0-26.4-32.5-31.7-54.1s-11.8-35.8,0-35.8s16.7,20.3,20.7,32.1c4.1,11.8,11,8.1,11,8.1V92.4
		c0,0,0.1-5.9,4.4-9.9c4-3.7,10.4-3.8,14.3,0.1c4,4,3.3,9.8,3.3,9.8v52.3c0,0,2.8-13,12.8-11.4s10.1,14.8,10.1,14.8
		s0.3-11.6,12.1-11.6c11.8,0,11.8,15.4,11.8,15.4s0.8-7.7,10.6-7.7s11,10.6,11,10.6v61.4c0,0,1.2,11.6-6.9,19.9"/>
	<line class="st3" x1="178.6" y1="131.6" x2="200.1" y2="131.6"/>
	<line class="st6" x1="219.7" y1="77.5" x2="219.7" y2="97.9"/>
	<path class="st3" d="M188.8,164.2h34.4c6.6,0,12-5.4,12-12V23.2c0-6.6-5.4-12-12-12H23.8c-6.6,0-12,5.4-12,12v128.9
		c0,6.6,5.4,12,12,12h8.7h2.2"/>
</g>
</svg>
